<?xml version="1.0" encoding="UTF-8" standalone="no"?>
<svg
   version="1.0"
   width="3064.3171pt"
   height="962.11853pt"
   viewBox="0 0 3064.3171 962.11853"
   preserveAspectRatio="xMidYMid meet"
   id="svg18"
   xmlns="http://www.w3.org/2000/svg"
   xmlnsSvg="http://www.w3.org/2000/svg">
  <defs
     id="defs22">
    <marker
       orient="auto"
       refY="0"
       refX="0"
       id="DotS"
       style="overflow:visible">
      <path
         id="path3229"
         d="m -2.5,-1 c 0,2.76 -2.24,5 -5,5 -2.76,0 -5,-2.24 -5,-5 0,-2.76 2.24,-5 5,-5 2.76,0 5,2.24 5,5 z"
         style="fill-rule:evenodd;stroke:#000000;stroke-width:1pt;marker-start:none;marker-end:none"
         transform="matrix(0.2,0,0,0.2,1.48,0.2)" />
    </marker>
    <marker
       orient="auto"
       refY="0"
       refX="0"
       id="DotL"
       style="overflow:visible">
      <path
         id="path3223"
         d="m -2.5,-1 c 0,2.76 -2.24,5 -5,5 -2.76,0 -5,-2.24 -5,-5 0,-2.76 2.24,-5 5,-5 2.76,0 5,2.24 5,5 z"
         style="fill-rule:evenodd;stroke:#000000;stroke-width:1pt;marker-start:none;marker-end:none"
         transform="matrix(0.8,0,0,0.8,5.92,0.8)" />
    </marker>
  </defs>
  <metadata
     id="metadata2">
Created by potrace 1.15, written by Peter Selinger 2001-2017
</metadata>
  <path
     d="m 622.74511,1.6988954 c -40.5,8.7999996 -68.9,45.7999996 -66.6,86.5999996 1.3,21.800005 9.8,40.500005 25.5,55.900005 9.8,9.6 21.2,16.3 34.7,20.6 8.8,2.7 28.1,3.8 38.1,2.1 40.3,-7.1 69.5,-41.6 69.5,-82.400005 0,-26.2 -10.1,-48.1 -30.4,-65.4 -18.4,-15.5999996 -46.9,-22.5999996 -70.8,-17.3999996 z"
     id="path4"
     style="fill:#000000;stroke:none;stroke-width:0.1" />
  <path
     d="m 499.84511,129.2989 c -24.8,6.8 -51,29.7 -128.1,112 -46.3,49.4 -53.5,57.9 -65.5,76.7 -8.4,13.3 -13.1,23.2 -15.6,33.2 -1.7,6.7 -2,10 -1.5,20.6 0.8,19.2 5.1,32 15.8,47.5 11.2,16.2 24.1,25.6 82.7,59.8 26.6,15.6 54.8,31 86.5,47.4 l 22.8,11.8 0.1,99 c 0.1,107.3 0.2,111.8 5.3,122.1 5.3,10.9 18,20.1 33,23.9 7.7,1.9 24.6,2 31.1,0 7.2,-2.1 12.6,-6.5 16.2,-13.3 4.2,-7.9 6,-16.2 7,-32.3 1,-15.6 -0.5,-270 -1.6,-271.1 -0.4,-0.4 -31.3,-19.6 -68.7,-42.8 -37.4,-23.2 -68.4,-42.5 -68.8,-42.9 -0.4,-0.5 20.9,-23.6 47.4,-51.5 26.6,-27.8 48.6,-50.3 49,-49.9 0.4,0.5 5.3,8.7 11,18.3 5.6,9.6 13.1,22 16.7,27.5 3.6,5.5 9.4,14.9 12.9,21 10.1,17.2 16,22 29.8,24.3 3.3,0.6 30.3,1.3 60,1.6 73.5,0.9 82.5,-0.2 93,-11.5 5.3,-5.7 8.9,-13 10.4,-21.4 3.9,-20.9 -3,-32.3 -23.4,-38.8 -18.6,-6 -51.9,-7.4 -96,-4.2 l -10,0.7 -6.9,-13.3 c -29.9,-57.8 -60.3,-109.7 -72.1,-123.2 -9,-10.3 -28.5,-24.7 -39.7,-29.4 -7.9,-3.3 -24,-4.2 -32.8,-1.8 z"
     id="path6"
     style="fill:#000000;stroke:none;stroke-width:0.1" />
  <path
     d="m 217.84511,485.3989 c -37.4,3.4 -71.2,14.1 -101.7,32.2 -99.000001,58.7 -141.200001,177.8 -101.100001,285.7 18.3,49.4 53.7,91.8 99.800001,119.5 28.5,17.2 62.9,28.6 96.9,32.1 14.5,1.5 48.3,0.6 61.1,-1.6 39.6,-6.7 74.4,-21.9 107.5,-46.8 10.9,-8.2 34.4,-32.1 43.2,-43.8 24.9,-33.2 40.4,-71.3 45.8,-112.2 2.8,-21.6 1.8,-53.7 -2.5,-75.7 -4.7,-24.7 -15.6,-52.8 -29,-75 -37,-61.5 -97,-101.4 -169,-112.5 -10.1,-1.5 -41.8,-2.7 -51,-1.9 z m 55.6,48.8 c 36.1,7.7 66.8,23.8 92.7,48.6 18,17.2 30.1,33.6 40.3,54.5 28.6,58.9 25,127.9 -9.5,183.5 -23.3,37.5 -59.8,66.2 -102,80 -73,24 -151.9,2.2 -202.900001,-56 -24.4,-27.9 -40.5,-64.1 -45.2,-102 -1.3,-10.9 -1.3,-34.1 0,-45 9.8,-78.7 67.200001,-143.5 143.500001,-161.9 17.8,-4.3 24.8,-5 48.5,-4.6 19.6,0.2 24.1,0.6 34.6,2.9 z"
     id="path12"
     style="fill:#000000;stroke:none;stroke-width:0.1" />
  <path
     d="m 845.83387,492.81852 c -69.3,7.7 -132,46.3 -170.8,105.1 -36.3,55.1 -47.5,122.8 -31.2,188 3.9,15.6 8.7,28.3 17,45.3 30.8,62.8 87.6,108.1 156.5,125 19,4.6 31.4,5.9 55,5.9 24.7,0 36.2,-1.4 58,-6.9 83.00003,-20.9 148.90003,-86.8 170.00003,-169.9 8.9,-35 9.7,-70.5 2.5,-105.7 -18.9,-92 -91.5,-164.6 -183.50003,-183.4 -20.6,-4.2 -52.8,-5.7 -73.5,-3.4 z m 58,46.8 c 82,14.3 144.30003,78.4 156.40003,161.2 2,13.6 2,37.6 0.1,51.9 -7.7,54.7 -38.5,103.3 -84.50003,133.3 -56.2,36.6 -128.7,40.8 -188.5,11 -37.1,-18.6 -68.3,-50 -86,-86.8 -29.8,-61.8 -25,-132.1 13,-189 31.3,-46.8 81.9,-77.3 138.5,-83.5 12.6,-1.3 37.7,-0.4 51,1.9 z"
     id="path14"
     style="fill:#000000;stroke:none;stroke-width:0.1" />
  <g
     id="g859"
     transform="matrix(1.7213622,0,0,1.7213622,668.95745,523.74184)">
    <path
       style="fill:none;fill-rule:evenodd;stroke:#000000;stroke-width:16;stroke-linecap:butt;stroke-linejoin:round;stroke-miterlimit:4;stroke-dasharray:none;stroke-opacity:1;marker-end:none"
       d="M 117.97742,44.013975 118,34.176113 V 201.91118 190.38892"
       id="path2386" />
    <path
       id="path5521"
       d="m 44.468213,118.05501 -9.774315,-0.0227 H 201.34549 189.89766"
       style="fill:none;fill-rule:evenodd;stroke:#000000;stroke-width:15.9999;stroke-linecap:butt;stroke-linejoin:round;stroke-miterlimit:4;stroke-dasharray:none;stroke-opacity:1;marker-end:none" />
    <ellipse
       style="fill:none;fill-opacity:1;stroke:#000000;stroke-width:14.8904;stroke-linejoin:round;stroke-miterlimit:4;stroke-dasharray:none;stroke-dashoffset:0;stroke-opacity:1"
       id="path5523"
       transform="matrix(1.0909111,0,0,1.1948074,-14.325662,-22.696729)"
       cx="121.19264"
       cy="117.61688"
       rx="49.932899"
       ry="45.590908" />
  </g>
  <path
     style="fill:#cc0033;fill-opacity:1;stroke-width:10.3196"
     d="m 1955.7898,416.31216 c -17.6631,-7.98476 -37.655,-31.65994 -54.2392,-38.26565 l -22.1246,-23.74795 30.3999,-19.24777 c 29.8982,-18.93016 30.7503,-18.89704 51.6594,2.01188 26.6852,26.68543 78.7499,28.17529 92.4136,2.6444 14.3339,-26.78294 3.5809,-37.93512 -65.9941,-68.44562 -74.7512,-32.78015 -87.7165,-48.28648 -87.7165,-104.90655 0,-35.95976 5.5326,-48.20391 31.7505,-70.264759 39.9997,-33.657486 122.1333,-24.04808 152.6575,-5.438841 l 34.7742,21.20027 -23.2528,24.75154 c -21.9652,23.38088 -24.9197,23.88973 -53.3493,9.18824 -36.1341,-18.68568 -70.3431,-10.34559 -70.3431,17.14942 0,14.42337 19.2689,29.21794 69.6572,53.48249 81.5246,39.2581 103.8408,71.75066 89.1121,129.74781 -16.7814,66.08129 -105.7158,101.64439 -175.4048,70.14109 z m -557.1366,517.2331 c -35.0077,-10.47592 -84.5228,-54.97968 -105.1939,-94.54716 -19.5714,-37.46289 -18.4073,-115.69672 2.3738,-159.48905 47.8567,-100.85066 191.8748,-128.66651 277.397,-53.57683 42.851,37.62358 44.8911,52.92907 9.2214,69.1813 -23.3071,10.61948 -30.5766,8.87329 -57.5496,-13.82288 -35.3117,-29.7128 -77.9992,-33.33766 -122.3721,-10.39153 -36.0871,18.66133 -51.3914,44.40479 -51.3914,86.44576 0,46.91596 19.6954,80.92108 57.1674,98.70276 46.6629,22.14293 67.9816,20.13352 113.4004,-10.68842 32.4642,-22.03089 43.4754,-24.75949 63.3576,-15.70063 30.3216,13.81545 30.5406,32.68389 0.7049,60.71354 -49.4531,46.45883 -120.9832,62.96303 -187.1153,43.17314 z m 1490.1093,-0.32572 c -28.6528,-12.03828 -72.2425,-49.90406 -72.2425,-62.75618 0,-4.55557 11.7824,-16.00288 26.1828,-25.4384 24.8862,-16.30599 27.3467,-16.06224 49.6834,4.92182 26.6692,25.05463 70.6561,28.99919 88.162,7.90616 19.7011,-23.73878 2.2915,-44.85948 -56.72,-68.81051 -100.0184,-40.59448 -127.5928,-115.03249 -65.5826,-177.04249 28.9416,-28.94179 35.8109,-31.04039 87.5566,-26.74929 34.645,2.87308 64.178,11.92108 77.11,23.62431 l 20.9593,18.96783 -22.6031,24.05972 c -20.8586,22.203 -24.4268,22.86479 -46.2352,8.57525 -29.386,-19.2545 -49.3244,-19.66004 -64.5512,-1.31305 -19.7014,23.73877 -2.2918,44.85945 56.7199,68.81051 30.9536,12.56317 65.4389,34.48662 76.6338,48.71879 50.0249,63.59612 3.0895,155.7551 -83.1762,163.31964 -25.3568,2.22354 -57.7103,-0.83367 -71.897,-6.79411 z M 1281.0127,245.83368 V 69.373841 l 69.6572,0.226979 c 82.1494,0.267675 140.4021,23.062417 180.3949,70.59115 58.6715,69.7271 43.6484,189.82639 -30.8579,246.68712 -32.5882,24.87022 -47.685,29.55416 -128.0735,31.80809 l -91.1207,3.60617 z m 162.8763,96.38291 c 87.1646,-61.05254 51.8474,-200.6056 -50.7678,-200.6056 h -39.8713 v 108.35568 108.35571 h 33.8224 c 18.6025,0 44.1698,-7.24764 56.8167,-16.10579 z m 187.9899,-97.40971 V 69.373841 h 103.1958 103.1959 v 36.118579 36.11857 h -67.0773 -67.0774 v 36.11857 36.11857 h 61.9177 c 61.6847,0 61.9174,0.11449 61.9174,30.4438 0,29.82341 -1.2091,30.50689 -59.3377,33.53868 l -59.3374,3.09484 -3.203,38.69845 -3.2029,38.69848 h 67.7004 67.7002 v 30.95878 30.95863 h -103.1959 -103.1958 z m 30.2399,573.03958 c 23.1311,-63.85245 51.2819,-142.79732 62.5576,-175.43304 l 20.5011,-59.33764 42.911,0.02 42.9107,0.02 62.9669,175.41374 62.9666,175.41371 h -40.2845 c -35.4824,0 -41.5708,-3.69041 -51.0767,-30.95885 -10.488,-30.08606 -12.6698,-30.95878 -77.3968,-30.95878 -64.7271,0 -66.9089,0.87304 -77.397,30.95878 -9.4856,27.2107 -15.63,30.95885 -50.7537,30.95885 h -39.9618 l 42.0566,-116.09549 z m 171.4877,-20.63917 c -2.6185,-7.09474 -12.9145,-37.69655 -22.8804,-68.00404 -9.9658,-30.30761 -21.8302,-51.20478 -26.3652,-46.43815 -6.5879,6.92432 -41.078,111.08345 -41.078,124.05489 0,1.80778 21.3938,3.28677 47.5421,3.28677 33.6933,0 46.1554,-3.75768 42.7815,-12.89947 z M 1990.953,758.50881 V 583.07578 h 83.0692 c 125.1791,0 164.6009,27.21452 164.6009,113.63086 0,33.71287 -6.5254,49.27604 -30.8666,73.61739 l -30.8669,30.86671 41.1864,60.64948 c 22.6524,33.35725 41.1864,63.22625 41.1864,66.37561 0,3.14938 -17.4144,5.71489 -38.6986,5.70164 -36.5376,-0.025 -40.9852,-3.76865 -79.6508,-67.07742 -55.7915,-91.34963 -77.723,-91.3427 -77.723,0.025 v 67.07742 h -36.1184 -36.1186 z m 175.4331,-41.27836 c 19.6529,-36.72194 -3.5909,-61.91753 -57.1209,-61.91753 H 2063.19 v 41.27836 41.27836 h 46.0752 c 35.5134,0 48.607,-4.73101 57.1209,-20.63919 z m 196.0722,77.39693 V 655.31292 h -46.4382 c -46.1924,0 -46.4382,-0.19099 -46.4382,-36.11857 v -36.11857 h 128.995 128.9947 v 36.11857 c 0,35.92746 -0.245,36.11857 -46.4382,36.11857 h -46.4382 v 139.31446 139.31434 h -36.1183 -36.1186 z m 196.0721,-36.11857 V 583.07578 h 108.3556 108.3559 v 36.11857 36.11857 h -67.0775 -67.0772 v 36.11857 36.11857 h 56.7577 c 56.1845,0 56.7577,0.31267 56.7577,30.95875 0,30.64608 -0.5737,30.95878 -56.7577,30.95878 h -56.7577 v 41.27836 41.27836 h 67.0772 67.0775 v 30.95878 30.95863 H 2666.886 2558.5304 Z"
     id="path1633" />
  <path
     d="m 209.33943,882.70931 c -63.90496,-10.1749 -114.871843,-56.6387 -131.733443,-120.0946 -5.1615,-19.4244 -5.5807,-55.1227 -0.88431,-75.3052 17.45382,-75.0069 81.178413,-126.1604 157.164883,-126.1604 46.4996,0 81.48181,13.9481 114.00893,45.4574 33.23113,32.1914 48.75688,69.5461 48.75688,117.3085 0,58.4706 -30.8912,111.2562 -82.33383,140.6887 -20.3656,11.6519 -57.80494,21.1621 -81.35039,20.664 -4.79499,-0.1014 -15.42792,-1.2527 -23.62872,-2.5584 z m 65.23337,-13.0875 c 27.55466,-7.544 58.89472,-27.6413 76.62553,-49.1372 12.64272,-15.3274 25.78174,-40.6094 30.86878,-59.3977 5.20406,-19.2204 5.69461,-55.5794 0.98444,-72.9731 -8.41436,-31.0729 -19.15463,-49.7553 -41.38158,-71.9823 -22.25656,-22.2565 -41.12558,-33.093 -71.98223,-41.3394 -17.56879,-4.6952 -53.94831,-4.23 -72.97308,0.9331 -64.16661,17.4142 -109.732963,73.7149 -112.728683,139.2848 -3.43506,75.1884 46.137253,139.8777 119.762053,156.2831 16.45855,3.6673 54.61415,2.767 70.82477,-1.6713 z m -64.66152,-9.4639 c -44.16309,-7.9892 -82.4307,-37.5805 -101.49648,-78.4845 -24.118793,-51.7447 -13.619233,-115.0492 25.72052,-155.076 30.61211,-31.1467 64.11125,-44.4284 107.51997,-42.6295 38.22048,1.584 64.12514,13.0484 91.62755,40.5508 17.86554,17.8656 27.6058,33.1981 34.92834,54.9824 4.53674,13.4966 5.0182,17.5615 5.07777,42.8676 0.071,30.1629 -2.27519,41.2675 -13.35479,63.2087 -20.45408,40.5057 -60.66382,69.2406 -105.64566,75.497 -18.11327,2.5193 -26.32233,2.3498 -44.37722,-0.9165 z m 39.33873,-17.0847 c 2.65149,-1.9316 6.07897,-6.1684 7.6166,-9.4152 l 2.7957,-5.9033 25.62743,-0.04 25.62736,-0.041 v -41.9358 -41.9357 h -9.31905 -9.31906 v -10.2509 c 0,-10.1475 -0.0565,-10.251 -5.59143,-10.251 h -5.5914 v 37.2762 37.2762 l -15.37646,0.023 c -12.90724,0.019 -16.66855,0.7611 -23.42298,4.6227 l -8.04649,4.6002 -5.619,-4.1568 c -4.60323,-3.4053 -8.61654,-4.2742 -22.20157,-4.8066 l -16.58266,-0.6499 -0.50473,-36.6262 -0.50473,-36.6263 -6.05736,-0.584 -6.05743,-0.584 v 10.369 10.369 h -8.38713 -8.38714 v 41.9358 41.9357 h 25.07401 25.07401 l 3.13593,6.6085 c 6.12288,12.903 24.28691,17.3362 36.01758,8.7907 z m -25.7967,-10.991 c -2.12458,-2.701 -3.86293,-6.8946 -3.86293,-9.319 v -4.4082 H 194.42894 169.2675 v -32.6167 c 0,-31.2307 0.15637,-32.6167 3.67914,-32.6167 3.47956,0 3.70697,1.5413 4.19355,28.4231 l 0.51448,28.4231 21.81042,0.5244 c 20.98854,0.5045 21.95426,0.7071 25.6274,5.3768 2.09934,2.6688 3.81698,5.9974 3.81698,7.3968 0,1.6653 2.25376,2.5444 6.52332,2.5444 5.28083,0 6.52332,-0.71 6.52332,-3.7277 0,-2.0501 1.67745,-5.405 3.72766,-7.4552 3.29539,-3.2954 6.21268,-3.7276 25.16144,-3.7276 h 21.43378 v -28.889 -28.8891 h 4.65955 4.65951 v 32.6167 32.6167 H 276.73164 251.8652 l -2.22453,7.4248 c -2.52603,8.4311 -6.44964,11.2132 -15.81391,11.2132 -4.81354,0 -7.51744,-1.28 -10.37345,-4.9108 z m -80.8869,-42.1289 c -18.23629,-24.3218 -25.88255,-60.978 -19.08908,-91.5133 5.86927,-26.3814 20.46945,-49.2221 42.69227,-66.7882 l 9.02409,-7.1331 h -8.98563 c -8.61502,0 -9.44841,0.4877 -20.20334,11.8227 -13.4885,14.216 -21.92317,27.915 -28.48517,46.2637 -6.40565,17.9114 -8.00447,50.5407 -3.37167,68.8087 4.13236,16.2947 13.75387,35.9699 23.62086,48.3031 l 8.20117,10.2509 0.5772,-6.9678 c 0.4233,-5.1103 -0.63788,-8.5883 -3.9807,-13.0467 z m 190.52728,9.2976 c 27.88993,-36.9442 33.89257,-86.0568 15.48105,-126.6626 -7.24649,-15.9817 -13.01935,-24.3168 -25.87028,-37.3527 -9.8438,-9.9855 -11.14721,-10.7129 -19.09727,-10.6579 l -8.5325,0.059 5.59147,3.9697 c 11.53458,8.1893 28.31308,27.3811 34.8469,39.859 10.34319,19.7529 13.37473,32.259 13.29238,54.8351 -0.0883,24.2318 -5.71184,43.3379 -18.26446,62.0546 -7.94477,11.8461 -11.26197,23.6807 -6.63757,23.6807 0.99186,0 5.12751,-4.4032 9.19028,-9.785 z m -91.13758,-30.667 c 0.63835,-18.1336 1.69394,-27.2344 3.35086,-28.889 1.33036,-1.3286 8.04009,-2.835 14.91049,-3.3476 l 12.49156,-0.9319 0.59582,-6.2154 0.59582,-6.2154 -12.71061,0.718 c -6.99081,0.3949 -14.17835,1.3944 -15.97224,2.2212 -2.87327,1.3243 -3.2617,0.387 -3.2617,-7.8706 0,-9.0733 0.21072,-9.4435 6.57073,-11.5425 8.16867,-2.6959 16.91713,-9.918 20.56935,-16.9807 2.77531,-5.3668 2.77382,-5.3694 -3.08254,-5.3694 -3.85254,0 -8.04026,1.915 -12.22752,5.5915 -9.99655,8.7771 -11.83002,7.6859 -11.83002,-7.0406 0,-15.0016 2.90155,-20.2431 12.16836,-21.9815 5.61057,-1.0526 6.46976,-1.9288 6.46976,-6.5978 0,-4.7653 -0.6566,-5.384 -5.71395,-5.384 -3.1427,0 -7.33629,0.8683 -9.31905,1.9294 -3.41604,1.8282 -3.60512,1.1927 -3.60512,-12.1148 v -14.0441 h -6.52332 -6.52332 v 13.9324 13.9325 l -4.78084,-1.8177 c -2.62951,-0.9997 -6.82309,-1.8177 -9.31909,-1.8177 -3.79988,0 -4.53819,0.9097 -4.53819,5.5915 0,4.2745 0.84426,5.5914 3.5846,5.5914 1.97159,0 6.16514,2.1713 9.31909,4.8252 5.38471,4.531 5.73443,5.6107 5.73443,17.7062 0,14.9945 -1.79494,16.1005 -11.83002,7.2896 -4.16342,-3.6556 -8.38029,-5.5915 -12.17963,-5.5915 -6.87796,0 -6.98133,0.4627 -1.92951,8.6367 2.60148,4.2092 7.51301,7.9702 14.89109,11.4028 l 11.00926,5.122 0.0193,9.0525 c 0.0166,7.9224 -0.38777,8.8755 -3.24226,7.6349 -1.79395,-0.7796 -8.92301,-1.8027 -15.84237,-2.2735 l -12.58072,-0.856 v 6.7336 6.7337 h 11.9795 c 10.72168,0 12.38507,0.5156 15.84238,4.9109 3.44736,4.3826 3.8629,7.4568 3.8629,28.5784 0,13.0172 0.59765,24.2652 1.32809,24.9957 0.73045,0.7304 3.4563,1.0799 6.05736,0.7765 l 4.7293,-0.5514 z m -75.20698,-55.2131 c -7.40446,-15.6038 -0.48279,-29.3928 16.49698,-32.8645 4.00436,-0.8187 5.76846,-2.375 6.21522,-5.4828 0.96504,-6.7141 -1.89832,-8.1905 -11.0865,-5.7163 -16.80654,4.5255 -25.88159,16.2858 -25.88159,33.5398 0,9.6026 1.7926,14.8924 7.11125,20.9854 2.78151,3.1865 3.05954,3.1725 6.56114,-0.3291 3.48098,-3.481 3.50899,-3.9675 0.5835,-10.1325 z m 147.92225,4.2862 c 4.29655,-8.422 4.77233,-19.8691 1.18286,-28.4599 -3.3284,-7.966 -14.29804,-17.4021 -23.05833,-19.8349 -10.77322,-2.9917 -11.69975,-2.6316 -11.69975,4.5475 0,5.9886 0.45302,6.5233 5.52655,6.5233 7.72922,0 17.94329,9.3446 19.54468,17.881 0.90012,4.798 0.25491,8.6865 -2.29723,13.8448 -3.51265,7.0997 -3.51051,7.2113 0.20919,10.931 4.55491,4.5549 5.83046,3.9007 10.59203,-5.4328 z m -124.90192,-63.066 c 0,-7.4223 6.29178,-14.6636 15.01045,-17.2758 6.32192,-1.8941 7.35529,-2.9478 7.35529,-7.5001 0,-4.4291 -0.77522,-5.2964 -4.73384,-5.2964 -5.78393,0 -17.33846,5.7036 -22.00268,10.8611 -3.67537,4.0641 -8.45929,15.915 -8.59412,21.2896 -0.0627,2.5007 1.44024,3.2617 6.44155,3.2617 5.93735,0 6.52335,-0.4797 6.52335,-5.3401 z m 102.50953,-0.5535 c 0,-9.2496 -8.02415,-21.1042 -17.33636,-25.6122 -11.70995,-5.6687 -16.21221,-5.2419 -16.21221,1.5367 0,4.5156 0.93971,5.6498 5.51335,6.6543 6.87747,1.5106 16.85239,12.5909 16.85239,18.7201 0,3.8627 0.89081,4.5947 5.5914,4.5947 5.03387,0 5.59143,-0.5877 5.59143,-5.8936 z m -63.70867,-41.6336 c 1.23362,-2.7075 3.6834,-4.6595 5.84763,-4.6595 2.04855,0 5.09851,2.0968 6.77765,4.6595 2.08881,3.188 4.75124,4.6596 8.43014,4.6596 6.29191,0 6.9564,-3.2746 2.27332,-11.2025 -3.72948,-6.3134 -9.68939,-9.2995 -18.56115,-9.2995 -8.1029,0 -17.47512,8.4197 -17.47512,15.6991 0,4.0336 0.84761,4.8029 5.29224,4.8029 3.83642,0 5.8763,-1.2818 7.41529,-4.6596 z"
     style="fill:#cc0033;fill-opacity:1;stroke-width:1.39786"
     id="path2924" />
</svg>
